<?xml version="1.0" encoding="iso-8859-1"?>
<svg height="800px" width="800px" version="1.1" id="Layer_1" xmlns="http://www.w3.org/2000/svg" xmlns:xlink="http://www.w3.org/1999/xlink" viewBox="0 0 512 512" xml:space="preserve">
  <circle style="fill:#05BEA6;" cx="256" cy="256" r="256"/>
  <path style="fill:#00A49A;" d="M6.134,200.125l197.43,198.204l21.304-131.963l28.134-131.491L143.917,25.79
    C74.873,59.468,23.24,123.289,6.134,200.125z"/>
  <path style="fill:#E6F3FF;" d="M210.046,402.746c7.406,3.067,15.936,1.372,21.606-4.298l128.451-128.765
    c3.718-3.718,5.806-8.763,5.806-14.019c0-5.258-2.089-10.302-5.81-14.019L231.05,109.35c-3.793-3.791-8.863-5.806-14.021-5.806
    c-2.553,0-5.13,0.495-7.583,1.51c-7.406,3.069-12.236,10.297-12.238,18.315l-0.021,256.862
    C197.808,392.449,202.637,399.677,210.046,402.746z"/>
  <path style="fill:#CFDBE6;" d="M365.865,256.862c0.014-0.3,0.045-0.598,0.045-0.9c0-5.258-2.089-10.302-5.81-14.019
    L231.669,114.549c-3.793-3.791-8.863-5.806-14.021-5.806c-2.553,0-5.13,0.495-7.583,1.51c-7.406,3.069-12.236,10.297-12.238,18.315
    l-0.009,129.295H365.865z"/>
</svg>
